<svg xmlns="http://www.w3.org/2000/svg" width="27.464" height="27.185" viewBox="0 0 27.464 27.185">
  <g id="Group_201" data-name="Group 201" transform="translate(0 0)">
    <path id="Path_90" data-name="Path 90" d="M104.349,49.37a6.608,6.608,0,0,0-.918.374,4.33,4.33,0,0,0-1.855,1.822,22.253,22.253,0,0,0-.918,3.022c-.033.125.21-.085.891-.76a12.311,12.311,0,0,1,4.293-2.884,16.056,16.056,0,0,1,2.818-.793c.19-.026.334-.059.315-.072s-.629-.19-1.363-.393A7.423,7.423,0,0,0,105.5,49.3,3.839,3.839,0,0,0,104.349,49.37Z" transform="translate(-97.139 -49.29)" fill="#ef075a"/>
    <path id="Path_91" data-name="Path 91" d="M85.806,76.333a12.044,12.044,0,0,0-3.985,1.114,11.787,11.787,0,0,0-6.653,8.947,15.475,15.475,0,0,0,0,3.4,11.787,11.787,0,0,0,6.653,8.947,11.957,11.957,0,0,0,16.891-8.547,17.275,17.275,0,0,0,0-4.195,11.83,11.83,0,0,0-5.06-7.669A12.044,12.044,0,0,0,85.806,76.333ZM84.26,79.545a3.355,3.355,0,1,1-3.087,5.624,3.25,3.25,0,0,1,.02-4.686A3.292,3.292,0,0,1,84.26,79.545Zm8.659,1.665a3.292,3.292,0,0,1,2.537,3.205,3.067,3.067,0,0,1-.95,2.366,3.423,3.423,0,0,1-1.612.918,3.23,3.23,0,0,1-2.327-.295,3.3,3.3,0,0,1-1.776-3.546,3.1,3.1,0,0,1,.931-1.737,3.142,3.142,0,0,1,2.36-1A3.7,3.7,0,0,1,92.918,81.21ZM87.57,86.873a1.425,1.425,0,0,1,.806,1.258,1.462,1.462,0,0,1-2.13,1.344,1.1,1.1,0,0,1-.682-.695A1.465,1.465,0,0,1,87.57,86.873Zm-5.086,1.58a4.059,4.059,0,0,1,.885.328,3.3,3.3,0,0,1,1.776,3.546,3.1,3.1,0,0,1-.931,1.737,3.3,3.3,0,0,1-3.952.623,3.345,3.345,0,0,1-1.219-4.844A3.45,3.45,0,0,1,82.483,88.452ZM91.22,90.13a3.363,3.363,0,0,1,2.458,3.907,3.677,3.677,0,0,1-1.763,2.3,3.386,3.386,0,0,1-3.913-.6,3.308,3.308,0,0,1-.02-4.726A3.429,3.429,0,0,1,91.22,90.13Z" transform="translate(-73.235 -74.51)" fill="#ef075a"/>
    <path id="Path_92" data-name="Path 92" d="M377,100.683a1.142,1.142,0,0,0,.295.262,13.876,13.876,0,0,1,2.589,2.871,13.077,13.077,0,0,1,1.966,4.995,1.451,1.451,0,0,0,.111.452c.013-.02.216-.747.452-1.626a7.729,7.729,0,0,0,.419-2.189,4.094,4.094,0,0,0-1.245-2.989,5,5,0,0,0-2.655-1.3c-.577-.151-1.245-.328-1.488-.393A1.192,1.192,0,0,0,377,100.683Z" transform="translate(-355.37 -97.307)" fill="#ef075a"/>
    <path id="Path_93" data-name="Path 93" d="M47.721,287.692c0,.026-.164.655-.361,1.4A6.721,6.721,0,0,0,47,291.048a4.088,4.088,0,0,0,1.239,2.982c.7.688,1.173.918,2.9,1.376.767.2,1.409.361,1.422.354s-.059-.092-.164-.17a20.279,20.279,0,0,1-1.947-1.953,13.181,13.181,0,0,1-2.537-5.283C47.8,287.8,47.721,287.541,47.721,287.692Z" transform="translate(-47 -272.026)" fill="#ef075a"/>
    <path id="Path_94" data-name="Path 94" d="M293.262,376.01c-.144.19-.531.616-.859.95a13.139,13.139,0,0,1-6.581,3.566,6.357,6.357,0,0,0-.708.164c-.026.026-.033.026,1.494.433,2.012.537,2.825.524,4.051-.079a4.257,4.257,0,0,0,2.039-2.2c.17-.439.872-3.041.846-3.12C293.531,375.7,293.406,375.827,293.262,376.01Z" transform="translate(-269.502 -354.327)" fill="#ef075a"/>
  </g>
</svg>
