<svg id="instagram" xmlns="http://www.w3.org/2000/svg" width="20.181" height="20.177" viewBox="0 0 20.181 20.177">
  <path id="Path_7" data-name="Path 7" d="M14.168,0H6.013A6.017,6.017,0,0,0,0,6.013v8.155a6.016,6.016,0,0,0,6.013,6.009h8.155a6.019,6.019,0,0,0,6.013-6.013V6.013A6.022,6.022,0,0,0,14.168,0Zm3.98,14.168a3.982,3.982,0,0,1-3.98,3.98H6.013a3.982,3.982,0,0,1-3.98-3.98V6.013a3.982,3.982,0,0,1,3.98-3.98h8.155a3.982,3.982,0,0,1,3.98,3.98v8.155Z" transform="translate(0 0)" fill="#ff002a"/>
  <path id="Path_8" data-name="Path 8" d="M138.218,133a5.218,5.218,0,1,0,5.218,5.218A5.223,5.223,0,0,0,138.218,133Zm0,8.408a3.19,3.19,0,1,1,3.19-3.19A3.19,3.19,0,0,1,138.218,141.408Z" transform="translate(-128.13 -128.13)" fill="#ff002a"/>
  <circle id="Ellipse_13" data-name="Ellipse 13" cx="1.249" cy="1.249" r="1.249" transform="translate(14.069 3.662)" fill="#ff002a"/>
</svg>
