<svg xmlns="http://www.w3.org/2000/svg" width="181" height="84" viewBox="0 0 181 84">
  <g id="Group_381" data-name="Group 381" transform="translate(-1468 -3939)">
    <rect id="Rectangle_152" data-name="Rectangle 152" width="181" height="84" rx="12" transform="translate(1468 3939)" opacity="0.22"/>
    <g id="Group_380" data-name="Group 380" transform="translate(40.935 -26)">
      <text style="text-align: right" id="پایگاه_اطلاع_رسانی_و_تحلیلی"  data-name="پایگاه اطلاع رسانی و تحلیلی" transform="translate(1499.985 4032.209)" fill="#fff" font-size="9" font-family="SegoeUI, Segoe UI" letter-spacing="-0.052em"><tspan x="0" y="0">پایگاه اطلاع رسانی و تحلیلی</tspan></text>
      <path id="Path_121" data-name="Path 121" d="M407.6,217.9a21.437,21.437,0,0,0-19.977-.738,24.068,24.068,0,0,0-5.2,3.528,13.39,13.39,0,0,0-1.294,1.582,25.625,25.625,0,0,0-1.514,2.2,42.858,42.858,0,0,0-2.915,5.285l-.633,1.464a6.977,6.977,0,0,0-.558,2l.131.4a1.274,1.274,0,0,0,1.014-.583,21.264,21.264,0,0,1,8.561-4.071,21.049,21.049,0,0,1,14.558,2.493c.488.285,1.839-1.538,1.866-1.571a44.725,44.725,0,0,0,5.538-9.592C407.325,219.9,408.129,218.208,407.6,217.9Z" transform="translate(1106.204 3761.26)" fill="#f90044"/>
      <path id="Path_119" data-name="Path 119" d="M1353.843,24.1a7.638,7.638,0,0,0-2.556-4.4,8.906,8.906,0,0,0-4.434-1.81,9.351,9.351,0,0,0-8.5,3.037,35.3,35.3,0,0,0-5.132,7.675c-1.01,1.935-2.289,4.332-2.435,6.681a18.122,18.122,0,0,1-4.554-7.321,23.25,23.25,0,0,1-1-6.553,29.483,29.483,0,0,1,.184-3.652q.094-.851.232-1.7c.014-.087.057-.327.072-.415.053-.271.107-.543.166-.813.245-1.126.539-2.241.869-3.345q.266-.89.562-1.771l.019-.056,0-.007c.113-.311.223-.623.337-.933.829-2.252,1.757-4.466,2.684-6.679.014-.035.771-1.782.359-2.019s-1.545,1.29-1.569,1.321a34.689,34.689,0,0,0-4.655,8.063c-3.217,7.675-6.666,15.93-5.987,24.434.53,6.637,4.087,13.607,10.684,15.95a14.646,14.646,0,0,0,10.36-.3c4.734-1.954,7.805-6.656,10.256-10.9C1352.208,34.434,1354.96,29.1,1353.843,24.1Zm-10.665,14.842a14.441,14.441,0,0,1-6.4-.254l-.046.009c-4.67-2.752.25-9.591,3-9.424l.025,0-.038-.026a7.955,7.955,0,0,1,7.149,4.961,10.4,10.4,0,0,1,.4,3.092A13.436,13.436,0,0,1,1343.178,38.943Z" transform="translate(246.966 3967)" fill="#fff"/>
      <path id="Path_120" data-name="Path 120" d="M-13.618,180.991c-.1-.714-.73-.057-.991.194a17.05,17.05,0,0,0-2.36,3.181l-.122.2-.1.027c-3.315.531-6.267-1.892-9.491-2.219a5.88,5.88,0,0,0-4.3,1.152,15.7,15.7,0,0,0-2.9,3.267,47.461,47.461,0,0,0-3.36,5.548,44.072,44.072,0,0,0-2.157,4.89c-.051.049-.1.1-.151.149-.233.223-.474.438-.714.654l-.01.009-.046.036c-.127.1-.252.2-.379.3q-.844.662-1.744,1.245A25.983,25.983,0,0,1-51,203.169a38.226,38.226,0,0,1-17.736-1.092c-2.9-.815-5.669-2.023-8.561-2.863-2.739-.8-5.7-1.117-8.372.108-2.48,1.137-4.335,3.382-7.031,4.065-4.067.7-7.618-2.312-11.058-3.985A11.3,11.3,0,0,0-110,198.08a12.893,12.893,0,0,0-6.412,2.681,31.656,31.656,0,0,0-7.11,8.46,82,82,0,0,0-5.706,10.991,38.563,38.563,0,0,0-3.177,9.271,9.273,9.273,0,0,0,1.525,6.73c3.285,4.746,9.345,5.629,14.646,6.281.564.069,1.352-1.053,1.569-1.321a28.8,28.8,0,0,0,2.578-3.887,28.707,28.707,0,0,0,2.077-4.176c.081-.219.773-1.968.359-2.019-5.9-.725-13.382-1.981-15.718-8.352a8.664,8.664,0,0,1-.322-3.279c.008-.083.1-.693.086-.679q.079-.376.179-.747a5.748,5.748,0,0,0,.275-.9c.024-.063.047-.127.071-.19.42-1.1.9-2.186,1.362-3.274-.769,1.805.041-.077.274-.592.037-.043.071-.081.1-.111q.295-.3.606-.587c.053-.048.107-.1.16-.143l.108-.088c.227-.168.446-.345.677-.509a14.013,14.013,0,0,1,1.434-.891,12.291,12.291,0,0,1,2.978-1.139,10.212,10.212,0,0,1,5.663.587,44.248,44.248,0,0,1,5.143,2.659,15.192,15.192,0,0,0,5.006,1.966,8.15,8.15,0,0,0,5.544-1.327c1.982-1.254,3.685-2.861,6.013-3.442,4.6-.823,9.13,1.733,13.4,3.046a42.333,42.333,0,0,0,14.393,2.043,28.409,28.409,0,0,0,12.287-3.31C-45.3,209.3-41.891,205.375-39.044,201a52.745,52.745,0,0,0,3.9-7.137l.123-.035c3.665-.612,6.763,2.226,10.369,2.234a5.991,5.991,0,0,0,4.457-2.092,23.758,23.758,0,0,0,2.683-3.61,42.075,42.075,0,0,0,2.7-4.907C-14.208,184.135-13.4,182.5-13.618,180.991Zm-2,2.91.025-.028q.06-.048.229-.194A.644.644,0,0,1-15.617,183.9Z" transform="translate(1574.64 3801.4)" fill="#fff"/>
      <path id="Path_121-2" data-name="Path 121" d="M407.6,217.9a21.437,21.437,0,0,0-19.977-.738,24.068,24.068,0,0,0-5.2,3.528,13.39,13.39,0,0,0-1.294,1.582,25.625,25.625,0,0,0-1.514,2.2,42.858,42.858,0,0,0-2.915,5.285l-.633,1.464a6.977,6.977,0,0,0-.558,2l.131.4a1.274,1.274,0,0,0,1.014-.583,21.264,21.264,0,0,1,8.561-4.071,21.049,21.049,0,0,1,14.558,2.493c.488.285,1.839-1.538,1.866-1.571a44.725,44.725,0,0,0,5.538-9.592C407.325,219.9,408.129,218.208,407.6,217.9Z" transform="translate(1101.665 3756.244)" fill="#fff"/>
      <path id="Path_122" data-name="Path 122" d="M140.631,670.017a14.953,14.953,0,0,0,13.935.515,16.78,16.78,0,0,0,3.63-2.461,9.348,9.348,0,0,0,.9-1.1,17.886,17.886,0,0,0,1.056-1.535,29.893,29.893,0,0,0,2.033-3.687l.442-1.022a4.862,4.862,0,0,0,.389-1.4l-.091-.278a.889.889,0,0,0-.707.406,14.831,14.831,0,0,1-5.972,2.839,14.681,14.681,0,0,1-10.155-1.739c-.34-.2-1.283,1.072-1.3,1.1a31.2,31.2,0,0,0-3.863,6.69C140.826,668.622,140.264,669.8,140.631,670.017Z" transform="translate(1324.388 3362.917)" fill="#fff"/>
      <path id="Path_121-3" data-name="Path 121" d="M407.6,217.9a21.437,21.437,0,0,0-19.977-.738,24.068,24.068,0,0,0-5.2,3.528,13.39,13.39,0,0,0-1.294,1.582,25.625,25.625,0,0,0-1.514,2.2,42.858,42.858,0,0,0-2.915,5.285l-.633,1.464a6.977,6.977,0,0,0-.558,2l.131.4a1.274,1.274,0,0,0,1.014-.583,21.264,21.264,0,0,1,8.561-4.071,21.049,21.049,0,0,1,14.558,2.493c.488.285,1.839-1.538,1.866-1.571a44.725,44.725,0,0,0,5.538-9.592C407.325,219.9,408.129,218.208,407.6,217.9Z" transform="translate(1098.741 3749.953)" fill="#05e1ad"/>
    </g>
  </g>
</svg>
