<svg xmlns="http://www.w3.org/2000/svg" width="26.065" height="21.183" viewBox="0 0 26.065 21.183">
  <path id="twitter" d="M26.065,50.5a11.044,11.044,0,0,1-3.08.845A5.306,5.306,0,0,0,25.337,48.4a10.716,10.716,0,0,1-3.39,1.293,5.341,5.341,0,0,0-9.24,3.655,5.574,5.574,0,0,0,.122,1.217,15.14,15.14,0,0,1-11.016-5.59,5.343,5.343,0,0,0,1.639,7.142,5.257,5.257,0,0,1-2.413-.657v.061A5.365,5.365,0,0,0,5.32,60.768a5.409,5.409,0,0,1-1.4.178,4.781,4.781,0,0,1-1.013-.092A5.392,5.392,0,0,0,7.9,64.575a10.751,10.751,0,0,1-6.623,2.281A10.516,10.516,0,0,1,0,66.785a15.036,15.036,0,0,0,8.2,2.4A15.1,15.1,0,0,0,23.407,53.977c0-.234-.01-.463-.02-.692A10.7,10.7,0,0,0,26.065,50.5Z" transform="translate(0 -48)" fill="#ffffff"/>
</svg>
