<svg id="g5360" xmlns="http://www.w3.org/2000/svg" width="35.945" height="25.155" viewBox="0 0 35.945 25.155">
  <g id="g4167" transform="translate(0 0)">
    <path id="path4156" d="M66.825,79.223s-11.234,0-14.054.733a4.645,4.645,0,0,0-3.175,3.2,48.092,48.092,0,0,0-.733,8.659s0,5.861.733,8.637a4.574,4.574,0,0,0,3.175,3.175c2.842.755,14.054.755,14.054.755s11.257,0,14.076-.733a4.467,4.467,0,0,0,3.153-3.175c.755-2.8.755-8.637.755-8.637s.022-5.862-.755-8.681A4.438,4.438,0,0,0,80.9,80C78.081,79.223,66.825,79.223,66.825,79.223ZM63.25,86.417l9.347,5.4L63.25,97.184V86.417Z" transform="translate(-48.863 -79.223)" fill="#fff"/>
  </g>
</svg>
